<svg xmlns="http://www.w3.org/2000/svg" width="1182" height="530" viewBox="0 0 1182 530" fill="none">
  <path d="M 162.00 286.00 L 161.00 286.00 L 159.00 288.00 L 152.00 292.00 L 148.00 296.00 L 147.00 296.00 L 128.00 315.00 L 128.00 316.00 L 117.00 329.00 L 117.00 330.00 L 109.00 341.00 L 108.00 344.00 L 106.00 346.00 L 104.00 351.00 L 102.00 353.00 L 96.00 365.00 L 96.00 367.00 L 94.00 370.00 L 94.00 372.00 L 92.00 376.00 L 92.00 379.00 L 91.00 380.00 L 91.00 383.00 L 90.00 384.00 L 90.00 389.00 L 89.00 390.00 L 89.00 412.00 L 90.00 413.00 L 91.00 420.00 L 97.00 431.00 L 106.00 440.00 L 112.00 443.00 L 114.00 445.00 L 118.00 446.00 L 121.00 448.00 L 126.00 449.00 L 127.00 450.00 L 130.00 450.00 L 131.00 451.00 L 134.00 451.00 L 135.00 452.00 L 139.00 452.00 L 140.00 453.00 L 142.00 453.00 L 134.00 445.00 L 134.00 444.00 L 129.00 438.00 L 124.00 428.00 L 124.00 425.00 L 123.00 424.00 L 123.00 421.00 L 122.00 420.00 L 122.00 407.00 L 123.00 406.00 L 124.00 399.00 L 126.00 396.00 L 126.00 394.00 L 129.00 388.00 L 136.00 379.00 L 137.00 379.00 L 140.00 376.00 L 142.00 375.00 L 145.00 375.00 L 146.00 374.00 L 154.00 375.00 L 162.00 379.00 L 176.00 391.00 L 176.00 392.00 L 183.00 399.00 L 183.00 400.00 L 188.00 406.00 L 189.00 410.00 L 190.00 411.00 L 190.00 416.00 L 191.00 417.00 L 191.00 419.00 L 190.00 420.00 L 190.00 426.00 L 189.00 427.00 L 188.00 432.00 L 186.00 435.00 L 186.00 437.00 L 183.00 441.00 L 182.00 444.00 L 180.00 446.00 L 178.00 450.00 L 174.00 454.00 L 174.00 455.00 L 160.00 469.00 L 159.00 469.00 L 152.00 475.00 L 142.00 480.00 L 149.00 479.00 L 150.00 478.00 L 152.00 478.00 L 159.00 475.00 L 162.00 475.00 L 168.00 472.00 L 176.00 470.00 L 179.00 468.00 L 186.00 466.00 L 191.00 463.00 L 193.00 463.00 L 205.00 457.00 L 207.00 455.00 L 212.00 453.00 L 221.00 446.00 L 222.00 446.00 L 233.00 435.00 L 237.00 428.00 L 237.00 426.00 L 238.00 425.00 L 238.00 420.00 L 239.00 419.00 L 239.00 415.00 L 238.00 414.00 L 238.00 407.00 L 237.00 406.00 L 236.00 400.00 L 233.00 394.00 L 226.00 386.00 L 226.00 385.00 L 201.00 359.00 L 201.00 358.00 L 193.00 349.00 L 191.00 345.00 L 184.00 336.00 L 183.00 333.00 L 181.00 331.00 L 179.00 326.00 L 177.00 324.00 L 172.00 314.00 L 172.00 312.00 L 169.00 307.00 L 169.00 305.00 L 165.00 297.00 Z M 858.00 80.00 L 858.00 83.00 L 861.00 87.00 L 861.00 88.00 L 863.00 90.00 L 864.00 93.00 L 866.00 95.00 L 869.00 102.00 L 871.00 104.00 L 871.00 106.00 L 872.00 107.00 L 872.00 108.00 L 875.00 113.00 L 875.00 115.00 L 877.00 118.00 L 877.00 120.00 L 878.00 121.00 L 878.00 123.00 L 879.00 124.00 L 879.00 127.00 L 880.00 128.00 L 880.00 137.00 L 879.00 138.00 L 878.00 141.00 L 875.00 144.00 L 871.00 144.00 L 865.00 138.00 L 865.00 137.00 L 863.00 135.00 L 863.00 134.00 L 860.00 129.00 L 860.00 127.00 L 858.00 124.00 L 857.00 119.00 L 856.00 119.00 L 856.00 120.00 L 855.00 121.00 L 855.00 123.00 L 854.00 124.00 L 854.00 126.00 L 853.00 127.00 L 853.00 130.00 L 852.00 131.00 L 852.00 134.00 L 851.00 135.00 L 851.00 139.00 L 850.00 140.00 L 850.00 144.00 L 849.00 145.00 L 849.00 151.00 L 848.00 152.00 L 848.00 163.00 L 847.00 164.00 L 847.00 177.00 L 848.00 178.00 L 848.00 186.00 L 849.00 187.00 L 849.00 191.00 L 850.00 192.00 L 850.00 195.00 L 851.00 196.00 L 854.00 203.00 L 857.00 206.00 L 858.00 206.00 L 861.00 208.00 L 872.00 208.00 L 873.00 207.00 L 875.00 207.00 L 876.00 206.00 L 883.00 203.00 L 885.00 201.00 L 886.00 201.00 L 888.00 199.00 L 889.00 199.00 L 894.00 194.00 L 895.00 194.00 L 902.00 187.00 L 902.00 186.00 L 906.00 182.00 L 906.00 181.00 L 908.00 179.00 L 909.00 176.00 L 911.00 174.00 L 911.00 173.00 L 913.00 170.00 L 914.00 165.00 L 915.00 164.00 L 915.00 161.00 L 916.00 160.00 L 916.00 147.00 L 915.00 146.00 L 914.00 141.00 L 912.00 138.00 L 912.00 136.00 L 909.00 132.00 L 908.00 129.00 L 906.00 127.00 L 906.00 126.00 L 904.00 124.00 L 904.00 123.00 L 902.00 121.00 L 902.00 120.00 L 893.00 110.00 L 893.00 109.00 L 878.00 94.00 L 877.00 94.00 L 872.00 89.00 L 871.00 89.00 L 867.00 85.00 L 866.00 85.00 L 861.00 81.00 Z M 352.00 165.00 L 344.00 221.00 L 362.00 272.00 L 392.00 301.00 L 494.00 362.00 L 527.00 401.00 L 534.00 446.00 L 529.00 461.00 L 519.00 468.00 L 488.00 458.00 L 441.00 419.00 L 446.00 444.00 L 464.00 477.00 L 484.00 499.00 L 513.00 517.00 L 561.00 517.00 L 578.00 509.00 L 589.00 496.00 L 593.00 478.00 L 590.00 455.00 L 552.00 382.00 L 548.00 357.00 L 568.00 314.00 L 610.00 275.00 L 625.00 281.00 L 626.00 292.00 L 590.00 343.00 L 584.00 391.00 L 599.00 427.00 L 631.00 446.00 L 668.00 449.00 L 682.00 445.00 L 703.00 432.00 L 728.00 403.00 L 733.00 411.00 L 723.00 451.00 L 751.00 451.00 L 770.00 444.00 L 781.00 423.00 L 794.00 361.00 L 811.00 338.00 L 825.00 332.00 L 795.00 326.00 L 763.00 351.00 L 760.00 345.00 L 766.00 327.00 L 781.00 306.00 L 810.00 282.00 L 854.00 277.00 L 873.00 288.00 L 880.00 305.00 L 881.00 331.00 L 872.00 364.00 L 857.00 387.00 L 769.00 460.00 L 759.00 477.00 L 875.00 473.00 L 907.00 461.00 L 919.00 447.00 L 926.00 426.00 L 931.00 366.00 L 942.00 318.00 L 959.00 294.00 L 982.00 286.00 L 1005.00 297.00 L 1008.00 324.00 L 982.00 373.00 L 933.00 413.00 L 933.00 428.00 L 947.00 448.00 L 978.00 463.00 L 1016.00 462.00 L 1047.00 449.00 L 1107.00 411.00 L 1103.00 427.00 L 1092.00 440.00 L 1049.00 461.00 L 1093.00 463.00 L 1136.00 443.00 L 1147.00 449.00 L 1155.00 468.00 L 1171.00 452.00 L 1171.00 435.00 L 1154.00 395.00 L 1157.00 362.00 L 1169.00 324.00 L 1165.00 281.00 L 1143.00 244.00 L 1098.00 211.00 L 1090.00 214.00 L 1098.00 247.00 L 1067.00 220.00 L 1041.00 215.00 L 981.00 248.00 L 934.00 284.00 L 917.00 289.00 L 910.00 283.00 L 909.00 270.00 L 928.00 211.00 L 817.00 253.00 L 802.00 251.00 L 782.00 226.00 L 758.00 215.00 L 723.00 218.00 L 657.00 245.00 L 634.00 247.00 L 622.00 238.00 L 595.00 174.00 L 575.00 154.00 L 551.00 141.00 L 567.00 192.00 L 562.00 237.00 L 531.00 274.00 L 511.00 284.00 L 493.00 285.00 L 468.00 272.00 L 446.00 244.00 L 431.00 202.00 L 433.00 166.00 L 419.00 187.00 L 411.00 222.00 L 402.00 217.00 L 395.00 201.00 L 393.00 170.00 L 398.00 142.00 L 426.00 78.00 L 384.00 114.00 Z M 1106.00 293.00 L 1108.00 295.00 L 1109.00 295.00 L 1111.00 297.00 L 1112.00 297.00 L 1117.00 302.00 L 1117.00 303.00 L 1120.00 307.00 L 1120.00 309.00 L 1121.00 310.00 L 1121.00 312.00 L 1122.00 313.00 L 1122.00 323.00 L 1121.00 324.00 L 1121.00 327.00 L 1120.00 328.00 L 1119.00 333.00 L 1118.00 334.00 L 1115.00 341.00 L 1113.00 343.00 L 1112.00 346.00 L 1109.00 349.00 L 1109.00 350.00 L 1107.00 352.00 L 1107.00 353.00 L 1103.00 357.00 L 1103.00 358.00 L 1096.00 365.00 L 1096.00 366.00 L 1083.00 379.00 L 1082.00 379.00 L 1074.00 387.00 L 1073.00 387.00 L 1062.00 397.00 L 1061.00 397.00 L 1058.00 400.00 L 1057.00 400.00 L 1054.00 403.00 L 1053.00 403.00 L 1046.00 409.00 L 1043.00 410.00 L 1042.00 409.00 L 1042.00 408.00 L 1045.00 405.00 L 1045.00 404.00 L 1048.00 401.00 L 1048.00 400.00 L 1052.00 395.00 L 1053.00 392.00 L 1055.00 390.00 L 1056.00 387.00 L 1058.00 385.00 L 1058.00 384.00 L 1062.00 377.00 L 1062.00 375.00 L 1064.00 372.00 L 1064.00 370.00 L 1065.00 369.00 L 1065.00 366.00 L 1066.00 365.00 L 1066.00 360.00 L 1067.00 359.00 L 1067.00 354.00 L 1066.00 353.00 L 1066.00 349.00 L 1065.00 348.00 L 1064.00 345.00 L 1060.00 341.00 L 1059.00 341.00 L 1058.00 340.00 L 1050.00 340.00 L 1049.00 341.00 L 1047.00 341.00 L 1046.00 342.00 L 1043.00 343.00 L 1041.00 345.00 L 1040.00 345.00 L 1036.00 349.00 L 1035.00 349.00 L 1029.00 355.00 L 1028.00 355.00 L 1027.00 354.00 L 1027.00 350.00 L 1028.00 349.00 L 1028.00 346.00 L 1029.00 345.00 L 1029.00 342.00 L 1030.00 341.00 L 1031.00 336.00 L 1034.00 331.00 L 1034.00 329.00 L 1035.00 328.00 L 1036.00 325.00 L 1038.00 323.00 L 1039.00 320.00 L 1041.00 318.00 L 1041.00 317.00 L 1043.00 315.00 L 1043.00 314.00 L 1045.00 312.00 L 1045.00 311.00 L 1059.00 297.00 L 1060.00 297.00 L 1062.00 295.00 L 1063.00 295.00 L 1068.00 292.00 L 1070.00 292.00 L 1071.00 291.00 L 1073.00 291.00 L 1074.00 290.00 L 1078.00 290.00 L 1079.00 289.00 L 1094.00 289.00 L 1095.00 290.00 L 1098.00 290.00 L 1099.00 291.00 L 1101.00 291.00 L 1102.00 292.00 L 1104.00 292.00 L 1105.00 293.00 Z M 712.00 270.00 L 713.00 271.00 L 713.00 273.00 L 709.00 277.00 L 709.00 278.00 L 703.00 285.00 L 703.00 286.00 L 699.00 291.00 L 698.00 294.00 L 696.00 296.00 L 696.00 297.00 L 691.00 306.00 L 691.00 308.00 L 689.00 311.00 L 689.00 314.00 L 688.00 315.00 L 688.00 319.00 L 687.00 320.00 L 687.00 326.00 L 688.00 327.00 L 688.00 330.00 L 689.00 331.00 L 689.00 333.00 L 691.00 335.00 L 691.00 336.00 L 695.00 339.00 L 704.00 339.00 L 705.00 338.00 L 707.00 338.00 L 708.00 337.00 L 713.00 335.00 L 725.00 325.00 L 726.00 325.00 L 727.00 326.00 L 727.00 329.00 L 726.00 330.00 L 726.00 332.00 L 725.00 333.00 L 725.00 336.00 L 724.00 337.00 L 724.00 339.00 L 723.00 340.00 L 723.00 341.00 L 722.00 342.00 L 722.00 344.00 L 721.00 345.00 L 721.00 346.00 L 720.00 347.00 L 717.00 354.00 L 715.00 356.00 L 714.00 359.00 L 712.00 361.00 L 712.00 362.00 L 708.00 366.00 L 708.00 367.00 L 695.00 380.00 L 694.00 380.00 L 692.00 382.00 L 691.00 382.00 L 684.00 386.00 L 682.00 386.00 L 681.00 387.00 L 679.00 387.00 L 678.00 388.00 L 674.00 388.00 L 673.00 389.00 L 661.00 389.00 L 660.00 388.00 L 656.00 388.00 L 655.00 387.00 L 650.00 386.00 L 649.00 385.00 L 644.00 383.00 L 636.00 376.00 L 636.00 375.00 L 634.00 373.00 L 634.00 372.00 L 631.00 367.00 L 631.00 363.00 L 630.00 362.00 L 630.00 357.00 L 631.00 356.00 L 631.00 352.00 L 632.00 351.00 L 633.00 346.00 L 634.00 345.00 L 637.00 338.00 L 639.00 336.00 L 640.00 333.00 L 643.00 330.00 L 643.00 329.00 L 646.00 326.00 L 646.00 325.00 L 652.00 319.00 L 652.00 318.00 L 664.00 306.00 L 665.00 306.00 L 673.00 298.00 L 674.00 298.00 L 679.00 293.00 L 680.00 293.00 L 684.00 289.00 L 685.00 289.00 L 692.00 283.00 L 693.00 283.00 L 699.00 278.00 L 700.00 278.00 L 702.00 276.00 L 703.00 276.00 L 705.00 274.00 L 706.00 274.00 L 708.00 272.00 L 709.00 272.00 L 711.00 270.00 Z M 154.00 65.00 L 140.00 72.00 L 124.00 87.00 L 115.00 100.00 L 104.00 125.00 L 99.00 150.00 L 100.00 240.00 L 98.00 250.00 L 94.00 259.00 L 85.00 267.00 L 78.00 269.00 L 68.00 269.00 L 59.00 265.00 L 53.00 257.00 L 50.00 246.00 L 49.00 226.00 L 54.00 189.00 L 61.00 161.00 L 50.00 174.00 L 32.00 203.00 L 23.00 223.00 L 15.00 251.00 L 13.00 268.00 L 15.00 290.00 L 20.00 303.00 L 24.00 309.00 L 37.00 320.00 L 40.00 328.00 L 38.00 349.00 L 27.00 386.00 L 21.00 418.00 L 22.00 440.00 L 27.00 454.00 L 40.00 469.00 L 56.00 479.00 L 73.00 484.00 L 96.00 484.00 L 107.00 482.00 L 125.00 476.00 L 142.00 467.00 L 142.00 466.00 L 117.00 464.00 L 105.00 461.00 L 94.00 456.00 L 82.00 445.00 L 74.00 431.00 L 71.00 421.00 L 70.00 390.00 L 77.00 361.00 L 88.00 338.00 L 100.00 321.00 L 139.00 280.00 L 149.00 260.00 L 151.00 250.00 L 151.00 230.00 L 135.00 159.00 L 133.00 139.00 L 133.00 118.00 L 136.00 98.00 L 140.00 85.00 L 145.00 75.00 Z M 217.00 13.00 L 222.00 25.00 L 224.00 35.00 L 224.00 58.00 L 221.00 75.00 L 211.00 105.00 L 184.00 158.00 L 177.00 178.00 L 172.00 201.00 L 171.00 235.00 L 177.00 269.00 L 186.00 294.00 L 204.00 327.00 L 247.00 386.00 L 255.00 402.00 L 258.00 412.00 L 258.00 431.00 L 252.00 444.00 L 239.00 458.00 L 228.00 466.00 L 208.00 476.00 L 175.00 488.00 L 140.00 497.00 L 111.00 502.00 L 86.00 503.00 L 98.00 507.00 L 132.00 514.00 L 180.00 520.00 L 229.00 520.00 L 246.00 518.00 L 274.00 511.00 L 293.00 502.00 L 303.00 495.00 L 318.00 480.00 L 329.00 464.00 L 338.00 444.00 L 342.00 427.00 L 343.00 415.00 L 340.00 391.00 L 331.00 371.00 L 319.00 356.00 L 277.00 311.00 L 256.00 285.00 L 240.00 260.00 L 226.00 226.00 L 221.00 199.00 L 222.00 175.00 L 227.00 152.00 L 243.00 101.00 L 246.00 72.00 L 244.00 57.00 L 240.00 45.00 L 231.00 29.00 Z" fill="#FFFFFF" fill-rule="evenodd" clip-rule="evenodd"/>
</svg>
